# xmcd
#
# Track frame offsets:
#	150
#	33688
#	102498
#	186296
#	268083
#
# Disc length: 4288 seconds
#
# Revision: 0
# Processed by: cddbd v1.5.2PL0 Copyright (c) Steve Scherf et al.
# Submitted via: audiograbber 1.83.01
#
DISCID=4710be05
DTITLE=Kempowski, Walter - Schöne Aussicht - CD 4
DYEAR=1900
DGENRE=
TTITLE0=Kapitel 3, Abschnitt 6
TTITLE1=Musik, Kapitel 4, Abschnitt 1
TTITLE2=Kapitel 4, Abschnitt 2
TTITLE3=Kapitel 4, Abschnitt 3
TTITLE4=Musik, Kapitel 5, Abschnitt 1
EXTD=
EXTT0=
EXTT1=
EXTT2=
EXTT3=
EXTT4=
PLAYORDER=
